<svg xmlns="http://www.w3.org/2000/svg" width="400" height="300" viewBox="0 0 400 300"><rect width="100%" height="100%" fill="#3b82f6"/><path fill="#FFFFFF" d="M93.755 155.32q.3 0 .53.23l1.43 1.55q-1.19 1.47-2.92 2.25-1.74.79-4.17.79-2.17 0-3.91-.75-1.73-.74-2.96-2.06-1.23-1.33-1.88-3.16-.66-1.84-.66-4.01 0-2.2.7-4.03t1.98-3.15q1.28-1.33 3.04-2.06 1.77-.74 3.92-.74 2.13 0 3.79.7 1.65.71 2.81 1.84l-1.21 1.69q-.11.16-.28.28t-.47.12q-.2 0-.41-.11-.22-.12-.48-.28-.25-.17-.59-.38-.34-.2-.78-.37-.45-.17-1.04-.28-.58-.12-1.35-.12-1.31 0-2.4.47t-1.87 1.35-1.21 2.16q-.44 1.28-.44 2.91 0 1.65.47 2.93.46 1.28 1.26 2.16t1.88 1.34q1.08.47 2.32.47.74 0 1.34-.08t1.11-.26.96-.45q.45-.28.9-.68.13-.13.28-.2t.31-.07m12.53-9.25h3.33v13.85h-2.04q-.66 0-.83-.61l-.23-1.1q-.85.86-1.88 1.39-1.02.54-2.42.54-1.13 0-2-.39-.87-.38-1.46-1.09-.6-.7-.9-1.66-.31-.97-.31-2.13v-8.8h3.34v8.8q0 1.27.59 1.97.58.69 1.76.69.86 0 1.62-.38.75-.39 1.43-1.06zm15.83 1.5-.75 1.2q-.14.21-.29.3-.14.09-.37.09-.25 0-.52-.13-.28-.14-.64-.31-.37-.17-.83-.3-.47-.14-1.11-.14-.98 0-1.54.42t-.56 1.09q0 .45.29.75.29.31.77.54t1.09.41q.6.18 1.23.4.63.21 1.24.49.6.28 1.08.7.48.43.77 1.02.29.6.29 1.43 0 1-.36 1.85-.35.84-1.06 1.45-.7.62-1.73.96-1.03.35-2.38.35-.72 0-1.4-.13t-1.31-.36-1.16-.54-.94-.67l.77-1.27q.15-.23.35-.35.2-.13.51-.13.32 0 .59.18.28.17.64.38.37.2.86.38.49.17 1.25.17.59 0 1.02-.14.42-.14.7-.37t.41-.54q.12-.3.12-.62 0-.49-.29-.8t-.77-.54-1.09-.41-1.25-.4q-.65-.22-1.26-.51t-1.09-.73q-.48-.45-.77-1.1-.29-.64-.29-1.56 0-.85.33-1.62.34-.77 1-1.34.65-.58 1.63-.92.98-.35 2.26-.35 1.43 0 2.61.48 1.17.47 1.95 1.24m7.28 12.57q-1.81 0-2.77-1.02-.97-1.02-.97-2.82v-7.73h-1.42q-.27 0-.46-.18-.18-.17-.18-.53v-1.32l2.22-.36.7-3.78q.07-.27.26-.42t.49-.15h1.73v4.36h3.69v2.38h-3.69v7.5q0 .65.31 1.02.32.36.87.36.31 0 .52-.07.21-.08.37-.16.15-.08.27-.16.13-.07.25-.07.15 0 .24.07.09.08.2.23l1 1.62q-.73.61-1.67.92-.95.31-1.96.31m11.56-14.29q1.54 0 2.8.5t2.16 1.42 1.38 2.24q.49 1.32.49 2.96t-.49 2.97q-.48 1.32-1.38 2.25t-2.16 1.43-2.8.5q-1.56 0-2.83-.5-1.26-.5-2.16-1.43t-1.39-2.25q-.5-1.33-.5-2.97t.5-2.96q.49-1.32 1.39-2.24t2.16-1.42q1.27-.5 2.83-.5m0 11.71q1.72 0 2.55-1.16t.83-3.41q0-2.24-.83-3.41-.83-1.18-2.55-1.18-1.76 0-2.6 1.19-.85 1.18-.85 3.4 0 2.23.85 3.4.84 1.17 2.6 1.17m12.71 2.36h-3.33v-13.85h2.04q.65 0 .85.61l.21 1.02q.37-.4.77-.74.39-.34.85-.58.45-.24.97-.39.52-.14 1.14-.14 1.31 0 2.15.71.85.71 1.27 1.89.32-.69.81-1.19.48-.49 1.06-.8t1.24-.46q.65-.15 1.31-.15 1.15 0 2.04.35t1.5 1.03q.61.67.93 1.65.31.97.31 2.22v8.82h-3.33v-8.82q0-1.32-.58-1.99-.58-.66-1.7-.66-.52 0-.96.17-.43.18-.76.51-.34.33-.52.83-.19.5-.19 1.14v8.82h-3.35v-8.82q0-1.39-.56-2.02t-1.64-.63q-.73 0-1.36.35-.63.36-1.17.98zm43.7-9.76q0 2.15-.71 3.94-.72 1.8-2.01 3.09-1.3 1.3-3.12 2.01-1.83.72-4.05.72h-7.44V140.4h7.44q2.22 0 4.05.72 1.82.72 3.12 2.01 1.29 1.29 2.01 3.09.71 1.79.71 3.94m-3.72 0q0-1.61-.43-2.88-.42-1.28-1.23-2.16-.8-.89-1.94-1.36t-2.57-.47h-3.8v13.74h3.8q1.43 0 2.57-.47t1.94-1.36q.81-.88 1.23-2.16.43-1.27.43-2.88m6.5-4.09h3.35v13.85h-3.35zm3.81-4.04q0 .43-.17.81-.18.38-.47.66-.29.29-.68.46t-.84.17q-.43 0-.82-.17-.38-.17-.66-.46-.29-.28-.46-.66t-.17-.81q0-.44.17-.83.17-.4.46-.68.28-.28.66-.45.39-.17.82-.17.45 0 .84.17t.68.45.47.68q.17.39.17.83m12.15 5.54-.76 1.2q-.13.21-.28.3t-.38.09q-.24 0-.52-.13-.27-.14-.64-.31-.36-.17-.83-.3-.46-.14-1.1-.14-.98 0-1.54.42t-.56 1.09q0 .45.29.75.29.31.77.54.47.23 1.08.41t1.24.4q.63.21 1.23.49.61.28 1.09.7.48.43.77 1.02.29.6.29 1.43 0 1-.36 1.85-.36.84-1.06 1.45-.7.62-1.73.96-1.04.35-2.39.35-.71 0-1.39-.13t-1.31-.36-1.16-.54q-.54-.31-.94-.67l.77-1.27q.15-.23.35-.35.2-.13.51-.13t.59.18q.28.17.64.38.36.2.86.38.49.17 1.25.17.59 0 1.02-.14.42-.14.7-.37.27-.23.4-.54.13-.3.13-.62 0-.49-.29-.8t-.77-.54-1.09-.41q-.62-.18-1.26-.4t-1.25-.51q-.62-.29-1.1-.73-.48-.45-.77-1.1-.29-.64-.29-1.56 0-.85.34-1.62t.99-1.34q.66-.58 1.64-.92.98-.35 2.26-.35 1.43 0 2.6.48 1.18.47 1.96 1.24m13.46.21-.88 1.22q-.15.19-.29.3-.14.1-.41.1-.26 0-.5-.15-.24-.16-.58-.35-.34-.2-.8-.35-.47-.16-1.16-.16-.87 0-1.54.32-.66.32-1.1.91-.43.59-.65 1.44-.22.84-.22 1.91 0 1.1.24 1.97.24.86.68 1.45.45.59 1.08.89.64.3 1.43.3.8 0 1.29-.19.49-.2.83-.43.34-.24.59-.44.25-.19.56-.19.4 0 .61.31l.96 1.21q-.56.65-1.21 1.09-.64.44-1.34.7-.69.27-1.43.37-.74.11-1.47.11-1.28 0-2.41-.48-1.14-.48-1.99-1.39-.85-.92-1.34-2.25t-.49-3.03q0-1.53.44-2.83t1.29-2.26q.85-.95 2.1-1.49 1.26-.54 2.89-.54 1.55 0 2.72.5t2.1 1.43m8.34-1.93q1.54 0 2.8.5 1.27.5 2.16 1.42.9.92 1.39 2.24.48 1.32.48 2.96t-.48 2.97q-.49 1.32-1.39 2.25-.89.93-2.16 1.43-1.26.5-2.8.5-1.55 0-2.82-.5t-2.16-1.43q-.9-.93-1.4-2.25-.49-1.33-.49-2.97t.49-2.96q.5-1.32 1.4-2.24.89-.92 2.16-1.42t2.82-.5m0 11.71q1.73 0 2.56-1.16t.83-3.41q0-2.24-.83-3.41-.83-1.18-2.56-1.18-1.75 0-2.6 1.19-.84 1.18-.84 3.4 0 2.23.84 3.4.85 1.17 2.6 1.17m12.33-10.65.2 1.56q.65-1.24 1.54-1.95t2.11-.71q.95 0 1.54.42l-.22 2.5q-.07.24-.2.34-.12.1-.34.1-.2 0-.6-.06-.4-.07-.78-.07-.55 0-.98.16-.44.16-.78.47-.34.3-.61.73-.26.43-.49.99v8.53h-3.33v-13.85h1.95q.52 0 .72.18t.27.66m15.82 8.91v-6.21q-.57-.69-1.23-.98-.67-.28-1.44-.28-.76 0-1.37.28-.6.29-1.04.86-.43.57-.66 1.46-.23.88-.23 2.09t.2 2.05q.2.85.56 1.38t.89.77 1.18.24q1.03 0 1.76-.44.73-.43 1.38-1.22m0-15.96h3.34v20.06h-2.04q-.66 0-.84-.61l-.28-1.33q-.84.95-1.93 1.55-1.08.59-2.53.59-1.13 0-2.08-.47-.94-.47-1.62-1.37-.69-.9-1.06-2.22t-.37-3.02q0-1.54.42-2.87.42-1.32 1.2-2.29t1.88-1.52q1.09-.55 2.45-.55 1.17 0 1.99.37.82.36 1.47.98zm17.35 17.23h3.67q1.01 0 1.7-.25.69-.24 1.1-.65.41-.4.6-.94.18-.54.18-1.15 0-.63-.2-1.14-.21-.51-.64-.86-.43-.36-1.11-.55t-1.64-.19h-3.66zm3.09-13.88h-3.09v5.64h2.89q1.86 0 2.81-.67.95-.68.95-2.15 0-1.53-.86-2.18-.86-.64-2.7-.64m-6.72-2.81h6.72q1.92 0 3.28.36 1.36.37 2.23 1.04.88.68 1.28 1.64.41.95.41 2.16 0 .69-.21 1.31-.2.63-.62 1.18-.43.54-1.08.99-.66.45-1.56.76 4.02.9 4.02 4.34 0 1.24-.47 2.3-.48 1.05-1.38 1.81-.91.77-2.23 1.2t-3.02.43h-7.37zm23.38 5.45q1.54 0 2.8.5t2.16 1.42 1.38 2.24q.49 1.32.49 2.96t-.49 2.97q-.48 1.32-1.38 2.25t-2.16 1.43-2.8.5q-1.55 0-2.82-.5t-2.17-1.43-1.39-2.25q-.49-1.33-.49-2.97t.49-2.96 1.39-2.24 2.17-1.42 2.82-.5m0 11.71q1.73 0 2.56-1.16t.83-3.41q0-2.24-.83-3.41-.83-1.18-2.56-1.18-1.76 0-2.6 1.19-.84 1.18-.84 3.4 0 2.23.84 3.4t2.6 1.17m14 2.58q-1.81 0-2.78-1.02-.96-1.02-.96-2.82v-7.73h-1.42q-.27 0-.46-.18-.19-.17-.19-.53v-1.32l2.23-.36.7-3.78q.07-.27.26-.42t.49-.15h1.72v4.36h3.7v2.38h-3.7v7.5q0 .65.32 1.02.32.36.87.36.31 0 .52-.07.21-.08.37-.16.15-.08.27-.16.12-.07.25-.07.14 0 .24.07.09.08.2.23l1 1.62q-.73.61-1.67.92-.95.31-1.96.31"/></svg>