<svg xmlns="http://www.w3.org/2000/svg" width="400" height="300" viewBox="0 0 400 300"><rect width="100%" height="100%" fill="#8b5cf6"/><path fill="#FFFFFF" d="M90.86 152.325q.23 0 .41.18l1.11 1.21q-.93 1.14-2.27 1.75-1.35.61-3.24.61-1.69 0-3.04-.58t-2.31-1.61q-.95-1.03-1.46-2.45-.51-1.43-.51-3.12 0-1.71.54-3.14.55-1.42 1.54-2.45t2.37-1.6q1.37-.57 3.04-.57 1.66 0 2.95.54 1.29.55 2.19 1.43l-.95 1.32q-.08.12-.21.22-.13.09-.36.09-.16 0-.33-.09t-.37-.22-.46-.29-.61-.29q-.34-.13-.8-.22t-1.06-.09q-1.01 0-1.86.37-.85.36-1.45 1.05-.61.68-.95 1.68-.34.99-.34 2.26 0 1.28.37 2.28.36.99.98 1.68.62.68 1.46 1.04t1.8.36q.58 0 1.05-.06t.86-.2.75-.35q.35-.22.69-.53.11-.1.22-.15.12-.06.25-.06m9.74-7.19h2.59v10.77h-1.58q-.52 0-.65-.47l-.18-.86q-.66.67-1.46 1.08-.8.42-1.88.42-.88 0-1.56-.3t-1.14-.85q-.46-.54-.7-1.29-.23-.75-.23-1.66v-6.84h2.59v6.84q0 .99.46 1.53.45.54 1.37.54.67 0 1.26-.3.58-.3 1.11-.82zm12.32 1.16-.59.94q-.11.16-.22.23-.12.07-.3.07-.19 0-.4-.1-.22-.11-.5-.24t-.64-.24q-.37-.1-.86-.1-.77 0-1.2.32-.44.33-.44.85 0 .35.23.59.22.23.6.41.37.18.84.32t.96.31.96.39q.47.21.85.54.37.33.6.79.22.47.22 1.12 0 .77-.28 1.43-.27.66-.82 1.13-.55.48-1.35.75t-1.85.27q-.56 0-1.09-.1t-1.02-.28-.9-.42q-.42-.24-.73-.53l.6-.98q.11-.18.27-.28.16-.09.4-.09t.46.14q.21.13.49.29.29.16.67.29.38.14.97.14.46 0 .8-.11.33-.11.54-.29.22-.18.32-.41.1-.24.1-.49 0-.38-.23-.62t-.6-.42-.85-.32-.97-.31q-.5-.17-.98-.39-.48-.23-.85-.58-.37-.34-.6-.85-.23-.5-.23-1.21 0-.67.27-1.26.26-.6.77-1.05t1.27-.71q.76-.27 1.76-.27 1.11 0 2.02.37.92.36 1.53.96m5.66 9.78q-1.41 0-2.16-.79-.75-.8-.75-2.19v-6.02h-1.11q-.21 0-.35-.14-.15-.13-.15-.41v-1.03l1.73-.28.55-2.94q.05-.21.2-.32.15-.12.38-.12h1.34v3.39h2.88v1.85h-2.88v5.84q0 .5.25.78.24.29.67.29.25 0 .41-.06t.28-.12.22-.12q.09-.06.19-.06.11 0 .19.06.07.06.15.17l.78 1.26q-.57.47-1.3.72-.74.24-1.52.24m8.98-11.11q1.2 0 2.18.39t1.68 1.1 1.08 1.74.38 2.3q0 1.28-.38 2.31t-1.08 1.76q-.7.72-1.68 1.11t-2.18.39-2.19-.39-1.69-1.11q-.69-.73-1.08-1.76-.38-1.03-.38-2.31 0-1.27.38-2.3.39-1.03 1.08-1.74.7-.71 1.69-1.1t2.19-.39m0 9.1q1.35 0 1.99-.9.65-.9.65-2.65 0-1.74-.65-2.65-.64-.92-1.99-.92-1.36 0-2.02.92-.65.92-.65 2.65 0 1.74.65 2.64.66.91 2.02.91m9.89 1.84h-2.59v-10.77h1.59q.5 0 .66.47l.17.8q.28-.32.59-.58t.66-.45.76-.3q.4-.11.88-.11 1.02 0 1.68.55t.98 1.46q.25-.53.63-.91.38-.39.83-.63t.96-.36q.51-.11 1.02-.11.9 0 1.59.27t1.17.8q.47.52.72 1.28.24.76.24 1.73v6.86h-2.59v-6.86q0-1.03-.45-1.55t-1.33-.52q-.4 0-.74.14t-.59.4q-.26.25-.41.64t-.15.89v6.86h-2.6v-6.86q0-1.08-.44-1.57-.43-.5-1.27-.5-.57 0-1.06.28t-.91.76zm34.84-15.18h2.14v15.18h-2.49v-9.81q0-.59.06-1.27l-4.59 8.62q-.32.62-1 .62h-.4q-.67 0-.99-.62l-4.64-8.65q.03.35.05.68.02.34.02.62v9.81h-2.49v-15.18h2.13q.19 0 .33.01.13.01.25.05.11.04.19.14.09.09.18.25l4.54 8.43q.18.34.34.69.15.36.29.74.15-.39.31-.75.16-.37.33-.7l4.49-8.41q.08-.16.18-.25.09-.1.2-.14t.25-.05q.13-.01.32-.01m5.19 4.41h2.6v10.77h-2.6zm2.96-3.14q0 .33-.13.63-.14.29-.37.51-.22.22-.53.35-.3.13-.65.13-.33 0-.63-.13t-.52-.35-.35-.51q-.14-.3-.14-.63 0-.35.14-.65.13-.31.35-.53t.52-.35.63-.13q.35 0 .65.13.31.13.53.35.23.22.37.53.13.3.13.65m4.54 3.61.18.85q.32-.33.68-.6.37-.28.77-.48.4-.19.87-.3.46-.11 1-.11.89 0 1.57.3t1.14.84.69 1.29q.24.75.24 1.65v6.86h-2.6v-6.86q0-.98-.45-1.52-.45-.55-1.37-.55-.67 0-1.26.31-.59.3-1.12.83v7.79h-2.59v-10.77h1.59q.5 0 .66.47m11.64 3.67h4.9q0-.5-.15-.95-.14-.44-.42-.78-.29-.33-.72-.53-.44-.19-1.01-.19-1.13 0-1.77.64-.65.64-.83 1.81m6.62 1.57h-6.67q.06.83.29 1.43.23.61.61 1t.9.59q.52.19 1.15.19t1.09-.15q.45-.14.8-.32.34-.18.59-.33.26-.14.5-.14.33 0 .49.24l.74.94q-.43.51-.97.85-.53.34-1.11.54-.59.21-1.19.29-.6.09-1.17.09-1.12 0-2.09-.38-.97-.37-1.68-1.1t-1.12-1.8q-.41-1.08-.41-2.5 0-1.1.35-2.07.36-.97 1.03-1.69.66-.72 1.63-1.14.96-.42 2.16-.42 1.02 0 1.88.32.86.33 1.48.95.62.63.97 1.54.36.91.36 2.07 0 .59-.13.79-.13.21-.48.21m10.95-4.38-.68.95q-.12.14-.23.23-.11.08-.32.08-.2 0-.39-.12t-.45-.27q-.26-.16-.62-.28-.37-.12-.9-.12-.68 0-1.2.25-.51.25-.85.71-.35.46-.51 1.12-.17.65-.17 1.48 0 .86.18 1.54.19.67.53 1.12.35.46.84.7.5.23 1.11.23.62 0 1.01-.15.38-.15.64-.33.27-.19.46-.34t.44-.15q.31 0 .47.24l.74.94q-.43.51-.93.85t-1.05.54q-.54.21-1.11.29-.57.09-1.14.09-1 0-1.88-.38-.88-.37-1.54-1.08-.66-.72-1.05-1.75-.38-1.03-.38-2.36 0-1.18.34-2.2.34-1.01 1.01-1.75.66-.74 1.63-1.16.98-.42 2.25-.42 1.21 0 2.12.39.9.39 1.63 1.11m4.01-.68.16 1.22q.5-.97 1.19-1.52.7-.55 1.64-.55.75 0 1.2.32l-.17 1.95q-.05.18-.15.26t-.27.08q-.16 0-.47-.05t-.6-.05q-.43 0-.77.12-.33.13-.6.37-.27.23-.47.57-.21.33-.39.76v6.64h-2.59v-10.77h1.52q.4 0 .56.14t.21.51m11.23 7.34v-1.82q-1.12.05-1.89.2-.76.14-1.22.36-.47.22-.67.51-.19.3-.19.64 0 .68.4.98.4.29 1.05.29.8 0 1.39-.29.58-.28 1.13-.87m-5.48-5.66-.46-.83q1.86-1.7 4.47-1.7.95 0 1.7.31.74.31 1.26.86.51.55.78 1.32.27.76.27 1.68v6.8h-1.18q-.37 0-.57-.11t-.31-.45l-.23-.77q-.41.36-.8.64t-.81.47-.9.29-1.05.1q-.69 0-1.26-.19-.58-.18-1-.55-.42-.36-.65-.91t-.23-1.27q0-.41.13-.81.14-.41.45-.78.31-.36.8-.69.5-.33 1.22-.57t1.67-.39q.96-.15 2.18-.18v-.63q0-1.09-.46-1.61t-1.33-.52q-.63 0-1.05.15-.41.15-.73.33-.31.19-.57.33-.25.15-.57.15-.27 0-.46-.14t-.31-.33m13.8 8.44h-2.59v-8.82l-.94-.15q-.3-.06-.49-.21-.18-.15-.18-.44v-1.06h1.61v-.8q0-.92.28-1.66.27-.73.79-1.25.52-.51 1.27-.78.74-.28 1.68-.28.74 0 1.38.2l-.05 1.31q-.01.14-.08.23-.08.09-.2.14t-.27.06q-.16.02-.34.02-.46 0-.82.1-.37.1-.62.34-.25.25-.38.65-.13.41-.13 1.01v.71h2.8v1.85h-2.72zm7.77.17q-1.41 0-2.16-.79-.75-.8-.75-2.19v-6.02h-1.1q-.21 0-.36-.14-.14-.13-.14-.41v-1.03l1.73-.28.54-2.94q.06-.21.2-.32.15-.12.38-.12h1.35v3.39h2.87v1.85h-2.87v5.84q0 .5.24.78.25.29.68.29.24 0 .4-.06.17-.06.29-.12t.21-.12q.1-.06.19-.06.12 0 .19.06t.16.17l.78 1.26q-.57.47-1.31.72-.73.24-1.52.24m12.56-7.72h2.11q.78 0 1.35-.19.58-.2.96-.56.39-.36.58-.88t.19-1.16q0-.61-.19-1.11-.19-.49-.57-.84-.38-.34-.96-.53-.57-.18-1.36-.18h-2.11zm-2.83-7.63h4.94q1.52 0 2.63.35 1.12.36 1.84 1 .73.64 1.08 1.53.35.9.35 1.96 0 1.1-.37 2.02-.36.92-1.1 1.58-.73.66-1.84 1.03t-2.59.37h-2.11v5.34h-2.83zm12.63-.42h2.59v15.6h-2.59zm11.87 4.83h2.59v10.77h-1.58q-.52 0-.65-.47l-.18-.86q-.66.67-1.46 1.08-.8.42-1.88.42-.88 0-1.56-.3t-1.14-.85q-.46-.54-.7-1.29-.23-.75-.23-1.66v-6.84h2.59v6.84q0 .99.46 1.53.45.54 1.37.54.67 0 1.26-.3t1.11-.82zm9.09 5.12q.49 0 .84-.13.36-.13.6-.36.23-.23.35-.56.12-.32.12-.71 0-.8-.47-1.27-.48-.47-1.44-.47-.95 0-1.43.47t-.48 1.27q0 .37.12.7t.36.56q.24.24.6.37t.83.13m2.93 6.13q0-.31-.19-.51-.18-.2-.51-.31t-.76-.16q-.44-.06-.93-.08-.48-.03-1-.05t-1.02-.08q-.43.24-.69.56-.27.33-.27.76 0 .28.14.53t.45.42q.31.18.8.28.5.1 1.21.1.73 0 1.25-.11.53-.11.87-.3.34-.2.5-.46.15-.27.15-.59m-.51-10.89h3.1v.97q0 .46-.56.57l-.97.18q.22.55.22 1.21 0 .8-.32 1.45-.32.64-.88 1.09-.57.46-1.34.7-.77.25-1.67.25-.31 0-.61-.03-.29-.03-.57-.09-.51.31-.51.69 0 .32.3.47.3.16.8.22.49.06 1.12.08.63.01 1.29.07.66.05 1.29.18t1.13.42q.49.28.79.77t.3 1.25q0 .72-.35 1.39-.36.67-1.02 1.2-.67.52-1.64.84t-2.21.32q-1.22 0-2.12-.24-.91-.23-1.5-.63-.6-.39-.9-.9-.29-.52-.29-1.07 0-.76.46-1.27.45-.51 1.25-.81-.43-.22-.68-.59t-.25-.97q0-.24.09-.5.09-.25.26-.51.17-.25.43-.47.27-.23.62-.41-.82-.44-1.28-1.17-.47-.74-.47-1.73 0-.79.32-1.44t.89-1.1q.58-.46 1.36-.7t1.7-.24q.7 0 1.31.14.6.14 1.11.41m4.82-.36h2.6v10.77h-2.6zm2.96-3.14q0 .33-.14.63-.13.29-.36.51t-.53.35-.65.13q-.34 0-.64-.13t-.52-.35-.35-.51q-.13-.3-.13-.63 0-.35.13-.65.13-.31.35-.53t.52-.35.64-.13q.35 0 .65.13t.53.35.36.53q.14.3.14.65m4.54 3.61.17.85q.33-.33.69-.6.36-.28.77-.48.4-.19.86-.3.47-.11 1.01-.11.88 0 1.57.3.68.3 1.14.84.45.54.69 1.29t.24 1.65v6.86h-2.6v-6.86q0-.98-.45-1.52-.45-.55-1.38-.55-.67 0-1.26.31-.58.3-1.11.83v7.79h-2.59v-10.77h1.58q.51 0 .67.47m16.75.69-.58.94q-.11.16-.23.23-.11.07-.29.07-.19 0-.4-.1-.22-.11-.5-.24-.29-.13-.65-.24-.36-.1-.85-.1-.77 0-1.21.32-.43.33-.43.85 0 .35.22.59.23.23.6.41.38.18.85.32t.96.31.96.39q.47.21.84.54.38.33.6.79.23.47.23 1.12 0 .77-.28 1.43t-.82 1.13q-.55.48-1.35.75-.81.27-1.86.27-.55 0-1.08-.1t-1.02-.28-.9-.42q-.42-.24-.73-.53l.59-.98q.12-.18.28-.28.15-.09.4-.09.24 0 .45.14.22.13.5.29.29.16.67.29.38.14.97.14.46 0 .79-.11t.55-.29q.21-.18.31-.41.1-.24.1-.49 0-.38-.22-.62-.23-.24-.6-.42t-.85-.32-.98-.31-.97-.39q-.48-.23-.85-.58-.38-.34-.6-.85-.23-.5-.23-1.21 0-.67.26-1.26.27-.6.78-1.05.5-.45 1.27-.71.76-.27 1.75-.27 1.12 0 2.03.37.91.36 1.52.96"/></svg>