<svg xmlns="http://www.w3.org/2000/svg" width="400" height="300" viewBox="0 0 400 300"><rect width="100%" height="100%" fill="#10b981"/><path fill="#FFFFFF" d="M96.095 156.5q.37 0 .65.28l1.75 1.9q-1.45 1.8-3.57 2.76-2.13.95-5.1.95-2.65 0-4.77-.9-2.12-.91-3.62-2.53-1.51-1.62-2.31-3.86t-.8-4.9q0-2.69.86-4.92.86-2.24 2.42-3.86 1.56-1.61 3.72-2.51t4.79-.9q2.6 0 4.62.85 2.02.86 3.44 2.25l-1.48 2.06q-.13.2-.34.35t-.57.15q-.25 0-.51-.14t-.58-.35q-.31-.21-.72-.45-.42-.25-.96-.46-.55-.2-1.26-.34-.72-.14-1.66-.14-1.6 0-2.93.56-1.33.57-2.29 1.65-.95 1.09-1.48 2.64-.53 1.56-.53 3.56 0 2.01.57 3.58t1.54 2.64q.98 1.07 2.3 1.64t2.84.57q.9 0 1.64-.1.73-.1 1.35-.31.62-.22 1.17-.55.55-.34 1.1-.84.16-.15.35-.24.18-.09.37-.09m15.32-11.3h4.07v16.93h-2.49q-.81 0-1.02-.74l-.28-1.36q-1.04 1.06-2.3 1.71-1.25.65-2.95.65-1.39 0-2.45-.47t-1.79-1.32q-.73-.86-1.1-2.04t-.37-2.6V145.2h4.08v10.76q0 1.55.71 2.4.72.85 2.16.85 1.05 0 1.98-.47.92-.47 1.75-1.3zm19.35 1.83-.92 1.47q-.17.26-.35.37t-.46.11q-.3 0-.64-.17-.33-.16-.78-.37-.45-.2-1.01-.37-.57-.16-1.35-.16-1.2 0-1.89.51-.68.51-.68 1.33 0 .55.35.92.36.37.94.65.59.28 1.33.51.74.22 1.51.48.77.27 1.51.6.74.34 1.33.86.58.52.94 1.25.35.72.35 1.75 0 1.22-.43 2.25-.44 1.03-1.3 1.78t-2.12 1.17-2.91.42q-.88 0-1.71-.15-.83-.16-1.6-.44t-1.42-.66-1.15-.83l.94-1.55q.19-.28.43-.43.25-.14.63-.14t.72.21q.34.22.78.46.45.25 1.05.46.6.22 1.53.22.72 0 1.24-.17.52-.18.86-.46t.49-.65q.16-.37.16-.77 0-.59-.35-.97-.36-.38-.94-.66-.59-.28-1.34-.5-.75-.23-1.53-.49-.79-.26-1.54-.62-.75-.35-1.34-.9-.58-.54-.94-1.33-.35-.8-.35-1.92 0-1.04.41-1.98t1.21-1.64 2-1.12 2.76-.42q1.75 0 3.19.57 1.43.58 2.39 1.52m8.89 15.36q-2.21 0-3.39-1.24-1.18-1.25-1.18-3.44v-9.46h-1.73q-.33 0-.56-.21-.23-.22-.23-.64v-1.62l2.72-.45.86-4.62q.08-.33.31-.51t.6-.18h2.11v5.33h4.52v2.9h-4.52v9.18q0 .79.39 1.23.39.45 1.06.45.38 0 .64-.09.25-.09.44-.19t.34-.19.3-.09q.18 0 .29.09.12.09.25.27l1.22 1.98q-.89.75-2.04 1.12-1.16.38-2.4.38m14.13-17.45q1.88 0 3.42.61 1.55.61 2.64 1.73 1.1 1.12 1.69 2.74.6 1.62.6 3.61 0 2.02-.6 3.63-.59 1.62-1.69 2.76-1.09 1.14-2.64 1.75-1.54.61-3.42.61-1.9 0-3.45-.61t-2.65-1.75-1.7-2.76q-.6-1.61-.6-3.63 0-1.99.6-3.61t1.7-2.74 2.65-1.73 3.45-.61m0 14.3q2.11 0 3.13-1.42 1.01-1.42 1.01-4.15 0-2.74-1.01-4.18-1.02-1.43-3.13-1.43-2.15 0-3.18 1.44t-1.03 4.17q0 2.72 1.03 4.15 1.03 1.42 3.18 1.42m15.54 2.89h-4.07V145.2h2.49q.79 0 1.04.74l.26 1.26q.45-.5.93-.91.49-.41 1.04-.71.56-.3 1.19-.47.64-.17 1.4-.17 1.6 0 2.63.86 1.03.87 1.54 2.3.4-.84.99-1.44t1.3-.98 1.51-.56 1.61-.18q1.4 0 2.49.43 1.09.42 1.83 1.25.75.82 1.14 2.01.38 1.19.38 2.73v10.77h-4.07v-10.77q0-1.62-.71-2.44t-2.08-.82q-.63 0-1.16.22-.54.21-.94.62-.41.4-.64 1.01t-.23 1.41v10.77h-4.09v-10.77q0-1.7-.69-2.48-.68-.78-2-.78-.89 0-1.66.44t-1.43 1.2zm60.49-23.86h3.48l-7.41 23.86h-4.01l-5.21-16.3q-.21-.6-.4-1.45-.09.41-.19.77t-.22.68l-5.26 16.3h-4.03l-7.39-23.86h3.71q.58 0 .97.27.39.28.52.74l4.06 14.27q.13.53.25 1.15.13.62.26 1.29.13-.69.29-1.3.15-.61.34-1.14l4.68-14.27q.13-.38.52-.7.39-.31.95-.31h1.3q.58 0 .94.28.37.28.55.73l4.67 14.27q.34 1.02.62 2.36.22-1.3.48-2.36l4.06-14.27q.1-.42.51-.71.4-.3.96-.3m8.99 13.45h7.69q0-.79-.22-1.49-.22-.71-.67-1.23-.44-.53-1.13-.84-.68-.3-1.59-.3-1.77 0-2.78 1-1.02 1.01-1.3 2.86m10.4 2.46h-10.48q.1 1.3.46 2.25.37.95.96 1.57t1.41.92q.82.31 1.81.31t1.71-.24q.71-.23 1.25-.51t.94-.51.78-.23q.51 0 .76.38l1.17 1.49q-.67.79-1.51 1.32-.85.54-1.76.86-.92.32-1.87.46-.94.13-1.84.13-1.76 0-3.28-.59-1.52-.58-2.64-1.73t-1.76-2.84q-.65-1.69-.65-3.92 0-1.73.56-3.26.56-1.52 1.61-2.65t2.56-1.79 3.41-.66q1.6 0 2.95.51t2.33 1.49q.97.98 1.52 2.41.56 1.43.56 3.26 0 .92-.2 1.25-.2.32-.76.32m8.08-4.03v7.59q.7.84 1.51 1.19.82.35 1.73.35.94 0 1.69-.34t1.28-1.06.81-1.83.28-2.67q0-2.78-.93-4.03-.92-1.25-2.65-1.25-1.18 0-2.05.54t-1.67 1.51m0-12.54v9.67q1.03-1.07 2.27-1.71 1.25-.63 2.85-.63 1.47 0 2.65.57 1.18.58 2.01 1.66t1.28 2.62q.44 1.53.44 3.45 0 2.06-.51 3.74t-1.46 2.88-2.28 1.86q-1.34.66-2.97.66-.8 0-1.44-.16t-1.19-.44q-.54-.28-.99-.68-.46-.41-.87-.9l-.18 1.14q-.1.43-.34.61t-.65.18h-2.69v-24.52zm25.91 9.42-.93 1.47q-.16.26-.34.37t-.46.11q-.3 0-.64-.17-.34-.16-.78-.37-.45-.2-1.02-.37-.57-.16-1.34-.16-1.21 0-1.89.51-.69.51-.69 1.33 0 .55.36.92.35.37.94.65.58.28 1.33.51.74.22 1.51.48.76.27 1.51.6.74.34 1.32.86.59.52.95 1.25.35.72.35 1.75 0 1.22-.44 2.25-.43 1.03-1.29 1.78t-2.12 1.17q-1.27.42-2.92.42-.87 0-1.7-.15-.84-.16-1.6-.44-.77-.28-1.42-.66t-1.15-.83l.94-1.55q.18-.28.43-.43.25-.14.63-.14t.72.21q.33.22.78.46.44.25 1.05.46.6.22 1.52.22.73 0 1.25-.17.52-.18.86-.46.33-.28.49-.65t.16-.77q0-.59-.36-.97-.35-.38-.94-.66-.58-.28-1.33-.5-.75-.23-1.54-.49-.78-.26-1.53-.62-.75-.35-1.34-.9-.58-.54-.94-1.33-.35-.8-.35-1.92 0-1.04.41-1.98t1.21-1.64 2-1.12q1.19-.42 2.76-.42 1.75 0 3.19.57 1.43.58 2.39 1.52m3.38-1.83h4.09v16.93h-4.09zm4.65-4.93q0 .53-.21.99-.22.46-.57.81-.35.34-.83.55t-1.03.21q-.52 0-.99-.21t-.82-.55q-.35-.35-.55-.81-.21-.46-.21-.99 0-.55.21-1.03.2-.47.55-.82t.82-.55q.47-.21.99-.21.55 0 1.03.21.48.2.83.55t.57.82q.21.48.21 1.03m9.24 22.12q-2.21 0-3.39-1.24-1.18-1.25-1.18-3.44v-9.46h-1.73q-.33 0-.56-.21-.23-.22-.23-.64v-1.62l2.72-.45.86-4.62q.08-.33.31-.51t.6-.18h2.11v5.33h4.52v2.9h-4.52v9.18q0 .79.39 1.23.38.45 1.06.45.38 0 .64-.09.25-.09.44-.19t.34-.19.3-.09q.18 0 .29.09.12.09.25.27l1.22 1.98q-.89.75-2.04 1.12-1.16.38-2.4.38m9.85-10.67h7.69q0-.79-.22-1.49-.22-.71-.67-1.23-.44-.53-1.13-.84-.68-.3-1.59-.3-1.77 0-2.78 1-1.02 1.01-1.3 2.86m10.4 2.46h-10.48q.1 1.3.46 2.25.37.95.96 1.57t1.41.92q.82.31 1.81.31t1.71-.24q.71-.23 1.25-.51t.94-.51.78-.23q.52 0 .76.38l1.17 1.49q-.67.79-1.51 1.32-.84.54-1.76.86t-1.86.46q-.95.13-1.84.13-1.77 0-3.29-.59-1.52-.58-2.64-1.73t-1.76-2.84q-.65-1.69-.65-3.92 0-1.73.56-3.26.56-1.52 1.61-2.65t2.56-1.79 3.41-.66q1.6 0 2.95.51t2.33 1.49q.97.98 1.52 2.41.56 1.43.56 3.26 0 .92-.2 1.25-.2.32-.76.32"/></svg>